<svg width="348" height="96" viewBox="0 0 348 96" fill="none" xmlns="http://www.w3.org/2000/svg">
<path d="M29.3039 72.8L27.6399 39.648L61.4319 2.39999H94.3279L56.4399 44.128L39.6719 61.28L29.3039 72.8ZM2.2959 92V2.39999H31.9919V92H2.2959ZM61.1759 92L34.8079 57.184L54.3919 36.448L96.1199 92H61.1759Z" fill="#121212"/>
<path d="M146.793 92V79.584L144.745 76.256V52.704C144.745 49.2907 143.678 46.688 141.545 44.896C139.497 43.104 136.126 42.208 131.433 42.208C128.276 42.208 125.076 42.72 121.833 43.744C118.59 44.6827 115.817 46.0053 113.513 47.712L104.297 28.64C108.393 26.08 113.3 24.1173 119.017 22.752C124.734 21.3867 130.324 20.704 135.785 20.704C147.817 20.704 157.118 23.392 163.689 28.768C170.345 34.144 173.673 42.6773 173.673 54.368V92H146.793ZM126.953 93.28C121.236 93.28 116.457 92.2987 112.617 90.336C108.777 88.3733 105.876 85.7707 103.913 82.528C101.95 79.2 100.969 75.5307 100.969 71.52C100.969 66.9973 102.121 63.1573 104.425 60C106.729 56.8427 110.228 54.4533 114.921 52.832C119.7 51.2107 125.716 50.4 132.969 50.4H147.561V64.352H137.577C134.505 64.352 132.244 64.864 130.793 65.888C129.428 66.8267 128.745 68.2773 128.745 70.24C128.745 71.8613 129.342 73.2267 130.537 74.336C131.817 75.36 133.524 75.872 135.657 75.872C137.62 75.872 139.412 75.36 141.033 74.336C142.74 73.2267 143.977 71.52 144.745 69.216L148.457 77.792C147.348 82.9973 145.001 86.88 141.417 89.44C137.833 92 133.012 93.28 126.953 93.28Z" fill="#121212"/>
<path d="M190.015 92V75.36L227.263 33.888L231.999 43.104H191.039V21.984H255.423V38.624L218.175 80.096L213.439 70.88H256.831V92H190.015Z" fill="#121212"/>
<path d="M310.006 93.28C301.473 93.28 294.006 91.7013 287.606 88.544C281.291 85.3867 276.385 81.0773 272.886 75.616C269.387 70.0693 267.638 63.84 267.638 56.928C267.638 49.8453 269.345 43.5733 272.758 38.112C276.257 32.6507 280.993 28.384 286.966 25.312C293.025 22.24 299.809 20.704 307.318 20.704C314.23 20.704 320.587 22.0693 326.39 24.8C332.278 27.5307 336.971 31.584 340.47 36.96C344.054 42.336 345.846 48.992 345.846 56.928C345.846 57.952 345.803 59.104 345.718 60.384C345.633 61.5787 345.547 62.688 345.462 63.712H291.574V49.76H330.102L319.222 53.472C319.222 50.7413 318.71 48.4373 317.686 46.56C316.747 44.5973 315.425 43.104 313.718 42.08C312.011 40.9707 309.963 40.416 307.574 40.416C305.185 40.416 303.094 40.9707 301.302 42.08C299.595 43.104 298.273 44.5973 297.334 46.56C296.395 48.4373 295.926 50.7413 295.926 53.472V57.824C295.926 60.8107 296.523 63.3707 297.718 65.504C298.913 67.6373 300.619 69.2587 302.838 70.368C305.057 71.392 307.745 71.904 310.902 71.904C314.145 71.904 316.79 71.4773 318.838 70.624C320.971 69.7707 323.19 68.4907 325.494 66.784L340.598 82.016C337.185 85.6853 332.961 88.5013 327.926 90.464C322.977 92.3413 317.003 93.28 310.006 93.28Z" fill="#121212"/>
<path fill-rule="evenodd" clip-rule="evenodd" d="M31.9919 34.8509L61.4319 2.39999H94.3279L58.4762 41.8853L96.1199 92H61.1759L38.7151 62.3431L31.9919 69.8133V92H2.2959V2.39999H31.9919V34.8509ZM33.9919 29.6698V0.399994H0.295898V94H33.9919V70.5808L38.5823 65.4803L60.1818 94H100.124L61.0681 42.0059L98.8453 0.399994H60.5459L33.9919 29.6698ZM144.793 94V89.1999C144.112 89.8767 143.374 90.4998 142.579 91.0675C138.55 93.9456 133.276 95.28 126.953 95.28C121.018 95.28 115.905 94.2627 111.707 92.1169C107.582 90.0089 104.382 87.1663 102.202 83.5636L102.196 83.5538L102.19 83.544C100.039 79.8961 98.9689 75.8738 98.9689 71.52C98.9689 66.6426 100.218 62.3726 102.809 58.8211C105.412 55.2546 109.293 52.6602 114.268 50.9416L114.278 50.938C119.333 49.2231 125.584 48.4 132.969 48.4H141.84C141.435 47.6187 140.903 46.9687 140.259 46.4274L140.243 46.4144L140.228 46.4011C138.729 45.0899 135.963 44.208 131.433 44.208C128.495 44.208 125.498 44.684 122.435 45.6512L122.412 45.6584L122.389 45.6651C119.335 46.5491 116.786 47.7766 114.703 49.3191L112.763 50.7565L101.716 27.8948L103.237 26.944C107.551 24.2474 112.668 22.2118 118.552 20.8067C124.41 19.4078 130.156 18.704 135.785 18.704C148.086 18.704 157.899 21.4496 164.95 27.2156C172.23 33.0979 175.673 42.3103 175.673 54.368V94H144.793ZM163.689 28.768C157.118 23.392 147.817 20.704 135.785 20.704C130.324 20.704 124.734 21.3867 119.017 22.752C113.3 24.1173 108.393 26.08 104.297 28.64L113.513 47.712C114.047 47.3164 114.606 46.9415 115.191 46.5872C117.128 45.4128 119.342 44.4651 121.833 43.744C125.076 42.72 128.276 42.208 131.433 42.208C136.126 42.208 139.497 43.104 141.545 44.896C142.668 45.8393 143.495 47.0073 144.027 48.4C144.265 49.0219 144.443 49.6885 144.563 50.4H132.969C125.716 50.4 119.7 51.2107 114.921 52.832C110.228 54.4533 106.729 56.8427 104.425 60C102.121 63.1573 100.969 66.9973 100.969 71.52C100.969 75.5307 101.95 79.2 103.913 82.528C105.876 85.7707 108.777 88.3733 112.617 90.336C116.457 92.2987 121.236 93.28 126.953 93.28C133.012 93.28 137.833 92 141.417 89.44C142.701 88.5227 143.826 87.4356 144.793 86.1787C145.56 85.1817 146.226 84.0779 146.793 82.8672V92H173.673V54.368C173.673 42.6773 170.345 34.144 163.689 28.768ZM137.577 64.352C134.505 64.352 132.244 64.864 130.793 65.888C129.428 66.8267 128.745 68.2773 128.745 70.24C128.745 71.8613 129.342 73.2267 130.537 74.336C131.817 75.36 133.524 75.872 135.657 75.872C137.62 75.872 139.412 75.36 141.033 74.336C141.669 73.9227 142.239 73.4266 142.745 72.8475C143.063 72.4832 143.355 72.086 143.622 71.656C144.069 70.935 144.443 70.1216 144.745 69.216V64.352H137.577ZM142.745 66.352H137.577C134.65 66.352 132.892 66.8544 131.946 67.5219L131.936 67.5291L131.926 67.5361C131.209 68.0291 130.745 68.7965 130.745 70.24C130.745 71.277 131.091 72.0982 131.843 72.8191C132.673 73.4583 133.881 73.872 135.657 73.872C137.246 73.872 138.663 73.4645 139.954 72.652C141.142 71.8761 142.094 70.6698 142.745 68.8784V66.352ZM188.015 94V74.5937L214.501 45.104H189.039V19.984H257.423V39.3903L230.937 68.88H258.831V94H188.015ZM226.452 70.88L255.423 38.624V21.984H191.039V43.104H218.986L190.015 75.36V92H256.831V70.88H226.452ZM286.721 90.3376L286.711 90.3329C280.104 87.0291 274.912 82.4863 271.202 76.6949L271.194 76.683C267.483 70.7993 265.638 64.1963 265.638 56.928C265.638 49.5092 267.43 42.8625 271.062 37.052L271.068 37.0425L271.074 37.0331C274.77 31.2639 279.776 26.7607 286.051 23.5334L286.061 23.5282C292.429 20.2996 299.528 18.704 307.318 18.704C314.499 18.704 321.148 20.1239 327.236 22.9877C333.455 25.8727 338.436 30.1711 342.14 35.8598C345.984 41.6308 347.846 48.6923 347.846 56.928C347.846 58.0058 347.801 59.2033 347.714 60.517L347.713 60.5265C347.627 61.7278 347.541 62.8451 347.455 63.8781L347.302 65.712H327.247L343.371 81.9718L342.062 83.3782C338.428 87.285 333.945 90.2641 328.652 92.3274L328.644 92.3307L328.635 92.334C323.399 94.32 317.172 95.28 310.006 95.28C301.225 95.28 293.445 93.6548 286.721 90.3376ZM323.563 65.712H300.237C301.142 66.9069 302.291 67.8538 303.705 68.5652C305.591 69.4296 307.968 69.904 310.902 69.904C313.992 69.904 316.35 69.4941 318.069 68.7778L318.082 68.7724L318.095 68.767C319.816 68.0786 321.639 67.0681 323.563 65.712ZM302.838 70.368C300.692 69.295 299.025 67.743 297.837 65.712C297.797 65.6432 297.757 65.5739 297.718 65.504C297.4 64.9368 297.125 64.3395 296.892 63.712H345.462C345.547 62.688 345.633 61.5787 345.718 60.384C345.803 59.104 345.846 57.952 345.846 56.928C345.846 48.992 344.054 42.336 340.47 36.96C336.971 31.584 332.278 27.5307 326.39 24.8C320.587 22.0693 314.23 20.704 307.318 20.704C299.809 20.704 293.025 22.24 286.966 25.312C280.993 28.384 276.257 32.6507 272.758 38.112C269.345 43.5733 267.638 49.8453 267.638 56.928C267.638 63.84 269.387 70.0693 272.886 75.616C276.385 81.0773 281.291 85.3867 287.606 88.544C294.006 91.7013 301.473 93.28 310.006 93.28C317.003 93.28 322.977 92.3413 327.926 90.464C332.961 88.5013 337.185 85.6853 340.598 82.016L325.494 66.784C323.19 68.4907 320.971 69.7707 318.838 70.624C316.79 71.4773 314.145 71.904 310.902 71.904C307.745 71.904 305.057 71.392 302.838 70.368ZM318.852 49.76C318.698 49.0535 318.497 48.3868 318.248 47.76C318.082 47.3423 317.894 46.9423 317.686 46.56C316.747 44.5973 315.425 43.104 313.718 42.08C312.011 40.9707 309.963 40.416 307.574 40.416C305.185 40.416 303.094 40.9707 301.302 42.08C299.595 43.104 298.273 44.5973 297.334 46.56C297.143 46.9423 296.971 47.3423 296.819 47.76C296.59 48.3868 296.406 49.0535 296.265 49.76H318.852ZM298.977 47.76H316.057C316.016 47.678 315.974 47.5972 315.93 47.5177L315.905 47.4709L315.882 47.4229C315.096 45.7798 314.028 44.5984 312.689 43.795L312.658 43.7765L312.628 43.7569C311.299 42.8929 309.645 42.416 307.574 42.416C305.506 42.416 303.79 42.8922 302.355 43.7805L302.343 43.7878L302.331 43.795C300.992 44.5984 299.924 45.7798 299.138 47.4229L299.131 47.4387L299.123 47.4544C299.073 47.5544 299.024 47.6562 298.977 47.76Z" fill="white"/>
</svg>
