<svg width="341" height="93" viewBox="0 0 341 93" fill="none" xmlns="http://www.w3.org/2000/svg">
<path d="M20.2786 69.66L22.4886 49.77L79.1686 0.5H100.489L51.8686 42.75L40.9486 51.72L20.2786 69.66ZM0.518555 91.5L18.7186 0.5H35.4886L17.2886 91.5H0.518555ZM65.1286 91.5L37.1786 50.03L48.7486 38.59L83.9786 91.5H65.1286Z" fill="white"/>
<path d="M128.446 92.41C122.812 92.41 117.656 91.1967 112.976 88.77C108.382 86.3433 104.699 82.8767 101.926 78.37C99.239 73.7767 97.8957 68.2733 97.8957 61.86C97.8957 55.9667 98.849 50.55 100.756 45.61C102.749 40.67 105.522 36.38 109.076 32.74C112.629 29.1 116.746 26.2833 121.426 24.29C126.192 22.2967 131.392 21.3 137.026 21.3C142.832 21.3 147.816 22.34 151.976 24.42C156.222 26.5 159.429 29.6633 161.596 33.91C163.762 38.07 164.759 43.27 164.586 49.51C164.412 58.09 162.852 65.63 159.906 72.13C156.959 78.5433 152.842 83.5267 147.556 87.08C142.269 90.6333 135.899 92.41 128.446 92.41ZM132.606 78.5C137.286 78.5 141.402 77.4167 144.956 75.25C148.509 72.9967 151.326 69.92 153.406 66.02C155.486 62.12 156.526 57.6133 156.526 52.5C156.526 47.1267 154.922 42.88 151.716 39.76C148.509 36.64 144.002 35.08 138.196 35.08C133.602 35.08 129.486 36.2067 125.846 38.46C122.292 40.6267 119.476 43.66 117.396 47.56C115.316 51.46 114.276 55.9667 114.276 61.08C114.276 66.4533 115.879 70.7 119.086 73.82C122.292 76.94 126.799 78.5 132.606 78.5ZM149.636 91.5L152.756 75.64L157.176 57.18L159.386 38.59L162.636 22.08H178.886L165.106 91.5H149.636Z" fill="white"/>
<path d="M187.017 91.5L188.967 81.23L241.357 29.49L244.217 35.08H199.367L201.967 22.08H259.817L257.737 32.35L205.477 84.09L202.357 78.5H249.547L246.947 91.5H187.017Z" fill="white"/>
<path d="M302.381 92.41C295.447 92.41 289.424 91.1533 284.311 88.64C279.197 86.04 275.211 82.4867 272.351 77.98C269.577 73.3867 268.191 68.0133 268.191 61.86C268.191 53.9733 269.924 46.9967 273.391 40.93C276.857 34.8633 281.581 30.0967 287.561 26.63C293.627 23.0767 300.517 21.3 308.231 21.3C314.731 21.3 320.364 22.5133 325.131 24.94C329.897 27.3667 333.581 30.8767 336.181 35.47C338.867 39.9767 340.211 45.3933 340.211 51.72C340.211 53.3667 340.124 55.0567 339.951 56.79C339.777 58.5233 339.517 60.1267 339.171 61.6H280.281L282.101 50.81H331.501L324.871 54.45C325.564 50.03 325.261 46.3467 323.961 43.4C322.661 40.4533 320.581 38.2 317.721 36.64C314.861 35.08 311.437 34.3 307.451 34.3C302.684 34.3 298.524 35.4267 294.971 37.68C291.504 39.8467 288.817 42.9667 286.911 47.04C285.004 51.0267 284.051 55.7067 284.051 61.08C284.051 66.7133 285.654 71.0467 288.861 74.08C292.154 77.1133 297.224 78.63 304.071 78.63C307.971 78.63 311.697 78.0233 315.251 76.81C318.804 75.51 321.751 73.7333 324.091 71.48L330.851 82.79C327.211 85.9967 322.877 88.4233 317.851 90.07C312.911 91.63 307.754 92.41 302.381 92.41Z" fill="white"/>
</svg>
