<svg width="348" height="93" viewBox="0 0 348 93" fill="none" xmlns="http://www.w3.org/2000/svg">
<path d="M23.8072 70.7L26.6672 46.26L78.4072 0.5H103.887L55.9172 42.75L42.0072 54.58L23.8072 70.7ZM0.407227 91.5L18.6072 0.5H39.5372L21.3372 91.5H0.407227ZM63.9772 91.5L37.9772 51.85L52.9272 37.68L87.6372 91.5H63.9772Z" fill="#333333"/>
<path d="M130.508 92.54C125.134 92.54 120.151 91.3267 115.558 88.9C110.964 86.3867 107.281 82.79 104.508 78.11C101.734 73.43 100.348 67.7967 100.348 61.21C100.348 55.3167 101.301 49.9 103.208 44.96C105.201 40.02 107.974 35.73 111.528 32.09C115.081 28.45 119.198 25.6333 123.878 23.64C128.558 21.56 133.584 20.52 138.958 20.52C144.764 20.52 149.748 21.6033 153.908 23.77C158.068 25.9367 161.144 29.3167 163.138 33.91C165.218 38.4167 165.954 44.2667 165.348 51.46C164.914 59.6933 163.224 66.93 160.278 73.17C157.331 79.3233 153.344 84.09 148.318 87.47C143.378 90.85 137.441 92.54 130.508 92.54ZM136.748 75.77C140.734 75.77 144.244 74.8167 147.278 72.91C150.398 70.9167 152.824 68.23 154.558 64.85C156.378 61.3833 157.288 57.3533 157.288 52.76C157.288 47.9933 155.858 44.2233 152.998 41.45C150.224 38.6767 146.324 37.29 141.298 37.29C137.398 37.29 133.888 38.2867 130.768 40.28C127.648 42.1867 125.178 44.8733 123.358 48.34C121.624 51.72 120.758 55.7067 120.758 60.3C120.758 65.0667 122.144 68.8367 124.918 71.61C127.778 74.3833 131.721 75.77 136.748 75.77ZM150.658 91.5L153.388 77.59L157.938 56.79L160.668 35.99L163.528 21.56H183.808L169.898 91.5H150.658Z" fill="#333333"/>
<path d="M190.234 91.5L192.704 79.28L242.754 30.4L246.004 37.16H202.194L205.314 21.56H265.374L263.034 33.78L212.984 82.66L209.474 75.9H255.754L252.634 91.5H190.234Z" fill="#333333"/>
<path d="M308.551 92.54C301.271 92.54 294.944 91.24 289.571 88.64C284.284 86.04 280.168 82.4 277.221 77.72C274.274 73.04 272.801 67.5367 272.801 61.21C272.801 53.41 274.534 46.4767 278.001 40.41C281.554 34.2567 286.408 29.4033 292.561 25.85C298.801 22.2967 305.951 20.52 314.011 20.52C320.858 20.52 326.751 21.82 331.691 24.42C336.631 26.9333 340.444 30.4867 343.131 35.08C345.904 39.5867 347.291 45.0033 347.291 51.33C347.291 53.15 347.161 54.97 346.901 56.79C346.728 58.61 346.468 60.3433 346.121 61.99H288.271L290.351 50.16H336.631L328.311 53.8C329.004 49.9 328.788 46.65 327.661 44.05C326.534 41.3633 324.714 39.3267 322.201 37.94C319.688 36.4667 316.654 35.73 313.101 35.73C308.681 35.73 304.911 36.8133 301.791 38.98C298.758 41.06 296.461 43.9633 294.901 47.69C293.341 51.4167 292.561 55.62 292.561 60.3C292.561 65.6733 294.034 69.7033 296.981 72.39C300.014 74.99 304.564 76.29 310.631 76.29C314.184 76.29 317.608 75.7267 320.901 74.6C324.194 73.4733 327.011 71.87 329.351 69.79L337.801 83.18C333.728 86.3867 329.134 88.77 324.021 90.33C318.994 91.8033 313.838 92.54 308.551 92.54Z" fill="#333333"/>
</svg>
